<svg t="1658824848131" class="icon" viewBox="0 0 1024 1024" version="1.1" xmlns="http://www.w3.org/2000/svg" p-id="3212" width="200" height="200"><path d="M890 218.5H134c-8.8 0-16 7.2-16 16v555c0 8.8 7.2 16 16 16h756c8.8 0 16-7.2 16-16v-555c0-8.8-7.2-16-16-16z m-521.2 547L537 597.3l40.7 40.7-127.5 127.5h-81.4z m497.2 0H506.8L710 562.3l156 156v47.2z m0-103.8L721.3 517.1c-6.2-6.2-16.4-6.2-22.6 0L606 609.7 548.3 552c-6.2-6.2-16.4-6.2-22.6 0L312.2 765.5H158v-507h708v403.2z" fill="#7D7D7D" p-id="3213"></path><path d="M328 341.5c-46.9 0-85 38.1-85 85s38.1 85 85 85 85-38.1 85-85-38.1-85-85-85z m0 130c-24.8 0-45-20.2-45-45s20.2-45 45-45 45 20.2 45 45-20.2 45-45 45z" fill="#7D7D7D" p-id="3214"></path></svg>