<svg width="20.000000" height="20.000000" viewBox="0 0 20 20" fill="none" xmlns="http://www.w3.org/2000/svg" xmlns:xlink="http://www.w3.org/1999/xlink">
	<desc>
			Created with Pixso.
	</desc>
	<g clip-path="url(#clip2_2)">
		<rect x="0.500000" y="0.500000" rx="1.000000" width="19.000000" height="19.000000" stroke="#000000"/>
		<path d="M8.9325 12.522C8.9325 14.019 7.64392 15.1812 5.71277 15.1812C3.82263 15.1812 2.43494 14.0327 2.43494 12.4536C2.43494 11.0796 3.38855 10.1294 4.32507 9.62354L4.32507 9.55518C3.5697 9.03564 2.9408 8.2666 2.9408 7.18652C2.9408 5.62109 4.14392 4.58545 5.75378 4.58545C7.50378 4.58545 8.56677 5.70312 8.56677 7.28564C8.56677 8.3623 7.8114 9.28857 7.19617 9.76367L7.19617 9.83545C8.09167 10.3516 8.9325 11.1206 8.9325 12.522ZM13.6092 15L10.9774 15L10.9774 4.73926L13.5511 4.73926C16.7025 4.73926 18.3944 6.57129 18.3944 9.83545C18.3944 13.0825 16.7025 15 13.6092 15ZM4.10291 7.18652C4.10291 8.42041 5.20691 8.95361 6.41345 9.42871C7.11072 8.81348 7.47644 8.11279 7.47644 7.35742C7.47644 6.34912 6.83044 5.52197 5.72644 5.52197C4.7865 5.52197 4.10291 6.19531 4.10291 7.18652ZM12.2796 5.78857L12.2796 13.937L13.4383 13.937C15.8616 13.937 17.0511 12.4229 17.0511 9.83545C17.0511 7.23096 15.8616 5.78857 13.4383 5.78857L12.2796 5.78857ZM3.59705 12.3408C3.59705 13.4312 4.50964 14.231 5.74011 14.231C6.91589 14.231 7.7157 13.5166 7.7157 12.4946C7.7157 11.1206 6.45447 10.6045 4.99841 10.0166C4.17126 10.5464 3.59705 11.3599 3.59705 12.3408Z" fill="#25C0FF"/>
	</g>
	<defs>
		<clipPath id="clip2_2">
			<rect width="20.000000" height="20.000000" fill="white"/>
		</clipPath>
	</defs>
</svg>
